<?xml version="1.0" encoding="utf-8"?>
<!-- Generator: Adobe Illustrator 17.0.0, SVG Export Plug-In . SVG Version: 6.00 Build 0)  -->
<!DOCTYPE svg PUBLIC "-//W3C//DTD SVG 1.1//EN" "http://www.w3.org/Graphics/SVG/1.1/DTD/svg11.dtd">
<svg version="1.1" id="Layer_1" xmlns="http://www.w3.org/2000/svg" xmlns:xlink="http://www.w3.org/1999/xlink" x="0px" y="0px"
	 width="96px" height="34.25px" viewBox="10.75 -2.333 96 34.25" enable-background="new 10.75 -2.333 96 34.25"
	 xml:space="preserve">
<g>
	<path fill="#FEF5E4" d="M103.625,19.254c-0.704,0-1.301-0.245-1.791-0.734c-0.489-0.489-0.734-1.076-0.734-1.761
		c0-0.685,0.245-1.282,0.734-1.791c0.489-0.509,1.086-0.763,1.791-0.763s1.301,0.254,1.791,0.763
		c0.489,0.509,0.734,1.106,0.734,1.791c0,0.685-0.245,1.272-0.734,1.761C104.927,19.009,104.33,19.254,103.625,19.254z"/>
	<g>
		<path fill="#FEF5E4" d="M16.014,7.503l0.083-0.028h0.374c0.111,0,0.272-0.13,0.485-0.391c0.019-0.019,0.264-0.107,0.738-0.265
			l0.055-0.056c0.13-0.112,0.223-0.187,0.279-0.224h0.264c0.019,0,0.093-0.044,0.223-0.133c0.13-0.088,0.405-0.188,0.825-0.3
			s0.694-0.205,0.824-0.279c0.055-0.019,0.258-0.046,0.608-0.084l0.387-0.07l0.305,0.028c0.489,0,0.839,0.326,1.051,0.978
			c0,0.037,0.023,0.096,0.069,0.174c0.046,0.08,0.069,0.138,0.069,0.175c0,0.391-0.189,0.801-0.567,1.229l-0.194,0.517
			c0,0.019-0.048,0.088-0.145,0.209c-0.097,0.121-0.183,0.263-0.256,0.426c-0.074,0.163-0.272,0.408-0.595,0.733
			c-0.055,0.112-0.134,0.286-0.235,0.524c-0.102,0.237-0.187,0.394-0.256,0.468c-0.069,0.075-0.249,0.354-0.539,0.838
			c-0.291,0.484-0.436,0.769-0.436,0.853c-0.138,0.103-0.233,0.274-0.284,0.517s-0.145,0.47-0.283,0.685l-0.028,0.098
			c0.295-0.103,0.442-0.266,0.442-0.489c0-0.027,0.078-0.098,0.235-0.209l0.11-0.196c0.11-0.13,0.208-0.204,0.291-0.224
			c0.018-0.074,0.115-0.184,0.29-0.328c0.175-0.144,0.292-0.244,0.352-0.3s0.159-0.114,0.297-0.175
			c0.138-0.061,0.294-0.291,0.47-0.691c0.018-0.074,0.089-0.135,0.214-0.182c0.125-0.046,0.228-0.123,0.311-0.23
			c0.083-0.107,0.152-0.179,0.207-0.216l0.111-0.167c0.101-0.093,0.17-0.149,0.208-0.167l0.677-0.838
			c0.359-0.232,0.557-0.414,0.594-0.544l0.111-0.028h0.083c0.147-0.121,0.244-0.205,0.291-0.251c0-0.28,0.104-0.463,0.311-0.552
			s0.357-0.196,0.449-0.321c0.092-0.126,0.194-0.188,0.304-0.188c0.028,0,0.079,0.028,0.152,0.083h0.027
			c0.028,0,0.055-0.046,0.083-0.14v-0.14c0-0.158,0.046-0.289,0.138-0.391c0.092-0.102,0.216-0.17,0.373-0.203
			c0.157-0.032,0.309-0.151,0.456-0.356c0.147-0.205,0.315-0.312,0.504-0.321s0.315-0.084,0.38-0.224s0.263-0.291,0.594-0.454
			s0.539-0.251,0.622-0.266c0.083-0.014,0.159-0.04,0.228-0.077s0.141-0.056,0.214-0.056c0.092,0,0.226,0.028,0.401,0.084
			l0.249,0.056c0.212,0.093,0.41,0.266,0.595,0.517l0.138,0.14v0.056l0.028,0.238v0.111c0.12,0.056,0.18,0.112,0.18,0.168
			l-0.097,0.182c-0.037,0.065-0.055,0.142-0.055,0.23s-0.005,0.177-0.014,0.265c-0.009,0.089-0.021,0.172-0.035,0.251
			c-0.014,0.079-0.032,0.154-0.055,0.224s-0.048,0.135-0.076,0.195c-0.027,0.061-0.06,0.119-0.097,0.175l-0.111,0.447
			c-0.037,0.177-0.136,0.389-0.297,0.636c-0.161,0.247-0.256,0.419-0.284,0.517c-0.027,0.098-0.092,0.23-0.193,0.398l0.028,0.084
			v0.195c0.287-0.037,0.43-0.149,0.43-0.335c0-0.196,0.116-0.34,0.348-0.433l0.305-0.251c0.241-0.428,0.537-0.708,0.889-0.838
			c0-0.149,0.088-0.303,0.264-0.461l0.527-0.503l0.375-0.209c0.167-0.344,0.356-0.554,0.569-0.628l0.306-0.196
			c0.185-0.093,0.29-0.184,0.313-0.272c0.023-0.089,0.095-0.179,0.215-0.272c0.12-0.093,0.296-0.247,0.528-0.461l0.11-0.056
			l0.139-0.14c0.101-0.056,0.216-0.102,0.346-0.14l0.111-0.056c0.23-0.177,0.438-0.295,0.622-0.356
			c0.185-0.06,0.392-0.161,0.623-0.3l0.484-0.07c0.111-0.037,0.184-0.056,0.221-0.056c0.876,0,1.314,0.498,1.314,1.495l-0.028,0.223
			l0.028,0.81c-0.231,0.382-0.346,0.582-0.346,0.601l0.028,0.251c0,0.038-0.06,0.147-0.18,0.329
			c-0.12,0.181-0.192,0.291-0.214,0.328c-0.023,0.037-0.109,0.135-0.256,0.293l-0.138,0.419c-0.046,0.093-0.125,0.181-0.235,0.265
			v0.167c0,0.14-0.18,0.349-0.54,0.629c-0.046,0.242-0.127,0.421-0.242,0.538c-0.116,0.117-0.203,0.237-0.263,0.363
			c-0.06,0.126-0.155,0.244-0.284,0.356c0,0.121-0.079,0.326-0.235,0.614s-0.279,0.473-0.367,0.552
			c-0.087,0.079-0.177,0.216-0.27,0.412l-0.125,0.056c-0.055,0.354-0.12,0.554-0.194,0.601l-0.222-0.028v0.057
			c0,0.019,0.019,0.051,0.056,0.098c0.037,0.046,0.056,0.098,0.056,0.153c0,0.065-0.028,0.121-0.083,0.168
			c-0.055,0.046-0.088,0.093-0.097,0.14c-0.009,0.046-0.03,0.093-0.063,0.14c-0.032,0.046-0.053,0.137-0.063,0.272
			c-0.009,0.135-0.079,0.318-0.208,0.551c-0.129,0.233-0.199,0.392-0.208,0.476s-0.023,0.153-0.042,0.209
			c-0.019,0.057-0.027,0.112-0.027,0.168s-0.023,0.2-0.069,0.433c0.175,0.419,0.3,0.703,0.375,0.853
			c0.074,0.148,0.111,0.247,0.111,0.293c0,0.373-0.047,0.622-0.139,0.747c-0.092,0.126-0.319,0.188-0.68,0.188
			c-0.231,0-0.432-0.081-0.604-0.244s-0.321-0.244-0.451-0.244v-0.252l-0.028-0.027h-0.221c-0.019-0.019-0.058-0.052-0.118-0.098
			c-0.06-0.047-0.118-0.112-0.173-0.196l-0.083-0.083c-0.074-0.094-0.139-0.247-0.194-0.461l-0.083-0.279l0.028-0.224l-0.028-0.35
			c0-0.093,0.009-0.167,0.028-0.224l0.027-0.377c0-0.037,0.019-0.118,0.056-0.244c0.037-0.126,0.06-0.274,0.069-0.447
			c0.009-0.172,0.051-0.305,0.125-0.397c0.074-0.094,0.115-0.173,0.125-0.238c0.009-0.064,0.035-0.118,0.076-0.16
			s0.076-0.146,0.104-0.314c0.027-0.167,0.125-0.303,0.291-0.405c0.092-0.167,0.17-0.325,0.235-0.475
			c0.194-0.27,0.295-0.405,0.305-0.405h0.193c-0.092-0.111-0.138-0.177-0.138-0.195c0-0.251,0.097-0.377,0.291-0.377
			c0.037,0,0.083,0.01,0.138,0.028l0.055-0.112l-0.055-0.237c0-0.158,0.12-0.316,0.36-0.475c0-0.271,0.125-0.512,0.374-0.727
			l-0.028-0.224c0.055-0.056,0.133-0.179,0.235-0.37c0.101-0.19,0.23-0.384,0.387-0.58l0.429-0.656l0.194-0.224
			c0,0.009,0.002,0.012,0.007,0.007c0.004-0.004,0.014-0.023,0.027-0.056c0.014-0.033,0.03-0.082,0.049-0.147l0.083-0.209
			l0.097-0.111c0.24-0.065,0.36-0.149,0.36-0.251c0-0.019-0.037-0.079-0.111-0.182V7.335c0-0.074,0.055-0.167,0.166-0.279
			c0.11-0.112,0.214-0.268,0.311-0.468c0.097-0.2,0.146-0.323,0.146-0.37c0-0.037-0.019-0.056-0.056-0.056
			c-0.295,0-0.493,0.107-0.595,0.321c0,0.056-0.18,0.168-0.54,0.335l-0.138,0.209c-0.111,0.103-0.208,0.154-0.291,0.154
			s-0.191,0.054-0.325,0.161s-0.426,0.349-0.878,0.726c-0.452,0.377-0.784,0.687-0.996,0.929L32.06,9.221
			c-0.13,0.065-0.194,0.117-0.194,0.154c0,0.093-0.079,0.214-0.236,0.363l-0.167,0.209c-0.129-0.046-0.204-0.07-0.222-0.07
			c-0.102,0-0.19,0.052-0.264,0.154c0.074,0.075,0.111,0.121,0.111,0.14c0,0.149-0.139,0.303-0.417,0.461l-0.597,0.629
			c-0.019,0.019-0.088,0.069-0.208,0.153c-0.121,0.084-0.211,0.188-0.271,0.314s-0.224,0.344-0.493,0.656s-0.425,0.479-0.472,0.503
			s-0.102,0.086-0.167,0.188c-0.065,0.103-0.199,0.247-0.403,0.433c-0.204,0.187-0.319,0.392-0.347,0.615
			c-0.176,0.065-0.264,0.121-0.264,0.167l-0.083,0.14l-0.111,0.057c-0.019,0.037-0.032,0.1-0.042,0.188
			c-0.009,0.088-0.193,0.246-0.553,0.475c-0.359,0.229-0.585,0.342-0.678,0.342c-0.028,0-0.069,0.02-0.125,0.057
			s-0.092,0.056-0.111,0.056c-0.027,0-0.15-0.056-0.366-0.168c-0.217-0.111-0.376-0.372-0.478-0.782l0.111-0.363l-0.055-0.293
			c0-0.056,0.043-0.13,0.131-0.224c0.087-0.093,0.131-0.209,0.131-0.349c0.147-0.336,0.258-0.573,0.332-0.713l0.028-0.224
			c0.037-0.093,0.099-0.197,0.187-0.313c0.087-0.117,0.141-0.247,0.159-0.392c0.018-0.144,0.078-0.234,0.18-0.272
			c0.102-0.037,0.475-0.601,1.121-1.69V9.626l0.401-0.699c0.12-0.205,0.268-0.438,0.443-0.698l0.125-0.321
			c-0.286-0.112-0.438-0.167-0.457-0.167c-0.055,0-0.125,0.037-0.208,0.112c0,0.158-0.272,0.321-0.816,0.489
			c-0.111,0.056-0.253,0.191-0.428,0.405L25.902,8.97c-0.055,0.038-0.143,0.112-0.263,0.224l-0.194,0.182
			c-0.23,0.056-0.428,0.186-0.594,0.391l-0.373,0.265c-0.111,0.093-0.185,0.163-0.222,0.209c-0.037,0.047-0.208,0.149-0.511,0.308
			l-0.221,0.223l-0.208,0.112c-0.147,0.159-0.258,0.293-0.332,0.406c-0.074,0.111-0.17,0.177-0.29,0.195l-0.304,0.111
			c-0.055,0.242-0.226,0.475-0.511,0.698l-0.401,0.503c-0.074,0.065-0.138,0.116-0.193,0.153c-0.037,0.094-0.102,0.159-0.193,0.196
			c-0.12,0.148-0.198,0.251-0.235,0.307l-0.166,0.126c-0.249,0.093-0.374,0.168-0.374,0.224l0.028,0.251
			c0,0.103-0.111,0.2-0.332,0.294c-0.092,0.046-0.145,0.121-0.159,0.223c-0.014,0.103-0.048,0.21-0.104,0.321h-0.249
			c-0.027,0-0.115,0.047-0.262,0.14c-0.019,0-0.037,0.01-0.056,0.028l0.056,0.321c0,0.111-0.074,0.24-0.222,0.384
			c-0.147,0.145-0.26,0.272-0.338,0.385c-0.079,0.111-0.136,0.167-0.173,0.167h-0.083l-0.083,0.056
			c0.009,0.178-0.106,0.368-0.345,0.573l-0.166,0.209c-0.056,0.047-0.213,0.279-0.472,0.698c-0.259,0.42-0.504,0.76-0.734,1.021
			c-0.231,0.261-0.443,0.435-0.637,0.523c-0.193,0.089-0.401,0.18-0.622,0.272l-0.567-0.112c-0.055-0.102-0.136-0.186-0.242-0.251
			s-0.159-0.135-0.159-0.21l-0.166-0.488c0-0.131,0.05-0.291,0.152-0.482c0.102-0.19,0.164-0.34,0.187-0.446
			c0.023-0.107,0.076-0.252,0.159-0.434s0.125-0.281,0.125-0.3c0-0.252,0.04-0.407,0.118-0.468s0.256-0.198,0.533-0.412
			c0.019,0,0.028-0.019,0.028-0.056v-0.028l-0.028-0.237c0.212-0.363,0.346-0.545,0.401-0.545c0.019,0,0.056,0.01,0.111,0.028
			l-0.083-0.308c0-0.037,0.051-0.098,0.152-0.182c0.101-0.084,0.18-0.177,0.235-0.279l-0.055-0.168v-0.056
			c0-0.177,0.115-0.358,0.346-0.545c0.037-0.074,0.111-0.265,0.222-0.572l0.362-0.643c0.093-0.177,0.19-0.296,0.292-0.356
			s0.158-0.132,0.167-0.216s0.042-0.177,0.097-0.279c0,0.047,0.007,0.049,0.021,0.007s0.037-0.133,0.07-0.272
			c0.032-0.14,0.137-0.251,0.313-0.335c0.213-0.55,0.38-0.825,0.501-0.825c0.037,0,0.088,0.019,0.153,0.056h0.056
			c0.147,0,0.221-0.056,0.221-0.167c0-0.037-0.019-0.056-0.055-0.056c-0.083,0.093-0.157,0.14-0.222,0.14
			c-0.064,0-0.097-0.019-0.097-0.056c0-0.019,0.014-0.037,0.042-0.056l0.305-0.628l0.028-0.265c0.037-0.056,0.111-0.14,0.221-0.251
			l0.235-0.321v-0.14c0-0.019,0.042-0.114,0.125-0.287c0.083-0.172,0.143-0.342,0.18-0.51l0.235-0.349
			C20.116,7.196,20.134,7.094,20.134,7c0-0.14-0.019-0.209-0.055-0.209l-0.802,0.153c-0.435,0.224-0.745,0.401-0.93,0.531
			l-0.32,0.07c-0.019,0-0.142,0.063-0.369,0.189c-0.228,0.125-0.427,0.195-0.598,0.209c-0.172,0.014-0.322,0.082-0.451,0.202
			l-0.055,0.028h-0.263c-0.102,0.121-0.171,0.212-0.208,0.272c-0.037,0.061-0.069,0.091-0.097,0.091
			c-0.931,0.624-1.521,1.001-1.771,1.131c-0.249,0.131-0.438,0.25-0.567,0.356c-0.129,0.107-0.24,0.184-0.332,0.23v0.167
			c0,0.159-0.113,0.337-0.339,0.538c-0.226,0.201-0.422,0.301-0.588,0.301c-0.056,0-0.141-0.03-0.256-0.091s-0.244-0.1-0.387-0.119
			c-0.143-0.019-0.214-0.195-0.214-0.531c0-0.475,0.387-0.908,1.162-1.299c0.12-0.056,0.23-0.121,0.332-0.195
			c0.101-0.075,0.512-0.256,1.231-0.545l0.401-0.196c0.092-0.093,0.247-0.179,0.463-0.258c0.216-0.079,0.387-0.146,0.512-0.202
			c0.125-0.056,0.224-0.093,0.297-0.112L16.014,7.503z M28.996,10.883l0.138-0.251v-0.028c0-0.019-0.019-0.028-0.055-0.028
			c-0.092,0-0.166,0.093-0.222,0.279c0.019,0.056,0.037,0.083,0.056,0.083C28.95,10.939,28.978,10.92,28.996,10.883z"/>
		<path fill="#FEF5E4" d="M44.047,17.755l-0.651,0.573c-0.037-0.037-0.074-0.056-0.11-0.056c-0.092,0-0.206,0.083-0.339,0.251
			s-0.229,0.251-0.284,0.251l-0.138-0.027c-0.231,0.177-0.397,0.279-0.499,0.307c-0.102,0.028-0.224,0.08-0.367,0.154
			s-0.272,0.116-0.388,0.126c-0.115,0.009-0.209,0.049-0.284,0.118c-0.074,0.07-0.253,0.104-0.54,0.104l-0.222-0.027
			c-0.12,0.056-0.198,0.084-0.235,0.084c-0.074,0-0.153-0.04-0.236-0.119s-0.173-0.123-0.27-0.133
			c-0.097-0.009-0.196-0.074-0.297-0.195s-0.196-0.205-0.284-0.252c-0.088-0.046-0.159-0.111-0.215-0.195l-0.193-0.167
			c-0.157-0.112-0.31-0.316-0.457-0.615c-0.147-0.298-0.221-0.53-0.221-0.698v-0.056l0.027-0.266l-0.027-0.307
			c0.037-0.037,0.083-0.117,0.138-0.238v-0.446l0.332-1.117c0.018-0.047-0.019-0.107-0.111-0.182
			c-0.092,0.14-0.185,0.223-0.277,0.251s-0.155,0.093-0.188,0.195c-0.032,0.103-0.086,0.154-0.16,0.154l-0.167-0.057
			c-0.019,0.02-0.06,0.114-0.125,0.287c-0.065,0.172-0.176,0.258-0.334,0.258c-0.167,0-0.251-0.064-0.251-0.195l0.028-0.252
			l-0.084-0.349c0-0.074,0.074-0.221,0.222-0.44c0.147-0.219,0.284-0.344,0.409-0.377c0.125-0.032,0.231-0.121,0.319-0.266
			c0.087-0.144,0.279-0.318,0.575-0.523c0.166-0.037,0.31-0.158,0.43-0.363c0.129-0.103,0.298-0.186,0.505-0.251
			c0.208-0.065,0.365-0.161,0.471-0.286c0.106-0.126,0.42-0.321,0.942-0.587s0.903-0.397,1.144-0.397
			c0.074,0,0.175-0.021,0.305-0.063s0.25-0.079,0.36-0.111c0.111-0.033,0.226-0.084,0.346-0.154c0.12-0.069,0.217-0.104,0.292-0.104
			l0.401,0.14c0.296,0.084,0.476,0.145,0.541,0.182c0.018,0.019,0.113,0.059,0.284,0.119s0.346,0.142,0.527,0.244
			c0.18,0.103,0.27,0.293,0.27,0.572c-0.157,0.233-0.236,0.358-0.236,0.377c0,0.038,0.106,0.094,0.319,0.168
			c0.074,0.14,0.185,0.321,0.333,0.545l0.152,0.488l0.028,1.146l-0.028,0.112c-0.102,0.093-0.152,0.153-0.152,0.181l0.042,0.28
			l-0.111,0.391c-0.028,0.121-0.074,0.2-0.139,0.237c-0.064,0.037-0.106,0.084-0.125,0.14l-0.083,0.112
			c-0.019,0.027-0.058,0.109-0.118,0.244s-0.127,0.239-0.201,0.314c-0.074,0.074-0.12,0.163-0.139,0.265
			c-0.019,0.103-0.064,0.178-0.138,0.224c-0.074,0.047-0.127,0.096-0.159,0.146C44.173,17.674,44.121,17.718,44.047,17.755z
			 M39.748,18.118l0.056,0.321l0.027,0.028h0.221l0.069,0.027c0.184,0.038,0.322,0.057,0.414,0.057c0.285,0,0.513-0.072,0.683-0.217
			c0.17-0.145,0.306-0.217,0.407-0.217c0.102,0,0.187-0.069,0.255-0.209s0.113-0.21,0.131-0.21h0.193l0.055-0.027
			c0-0.215,0.094-0.368,0.283-0.461c0.188-0.094,0.322-0.217,0.4-0.37c0.078-0.154,0.168-0.271,0.269-0.35s0.17-0.184,0.207-0.314
			l0.11-0.167c0.037-0.037,0.055-0.107,0.055-0.21l0.262-0.503c0.056-0.232,0.083-0.414,0.083-0.545
			c0-0.195-0.099-0.349-0.297-0.461c-0.198-0.111-0.297-0.33-0.297-0.656c0-0.214,0.108-0.412,0.325-0.594s0.325-0.291,0.325-0.328
			c0-0.056-0.028-0.084-0.083-0.084c-0.028,0-0.134,0.038-0.318,0.112c-0.064,0.13-0.391,0.303-0.98,0.517
			c-0.193-0.093-0.299-0.14-0.317-0.14c-0.055,0-0.11,0.056-0.166,0.168c-0.055,0.111-0.11,0.19-0.166,0.237h-0.18
			c-0.018,0-0.078,0.061-0.179,0.182s-0.23,0.182-0.387,0.182l-0.166,0.167c0.009,0.149-0.083,0.303-0.276,0.461l-0.152,0.182
			c-0.092,0.112-0.212,0.242-0.359,0.392l-0.249,0.628c-0.101,0.242-0.152,0.424-0.152,0.545c-0.028,0.056-0.09,0.114-0.187,0.175
			c-0.097,0.061-0.146,0.138-0.146,0.23c0,0.019,0.032,0.065,0.097,0.14s0.097,0.13,0.097,0.167l-0.056,0.182l-0.055,0.518
			L39.748,18.118z"/>
		<path fill="#FEF5E4" d="M57.432,15.828v0.153l0.027,0.111v0.057c0,0.019-0.02,0.125-0.055,0.321
			c-0.139,0.148-0.217,0.358-0.236,0.628l-0.166,0.252c0,0.13-0.043,0.232-0.131,0.307c-0.088,0.075-0.164,0.224-0.229,0.447
			s-0.143,0.461-0.234,0.712l-0.318,0.797c0,0.037,0.018,0.056,0.055,0.056c0.018,0,0.049-0.01,0.09-0.028s0.08-0.027,0.117-0.027
			s0.074,0.009,0.111,0.027s0.064,0.028,0.084,0.028c0.018,0,0.084-0.033,0.199-0.098c0.117-0.065,0.248-0.107,0.396-0.126
			l0.512-0.126c0.111-0.037,0.338-0.056,0.68-0.056l0.43-0.028c0.342,0,0.688,0.089,1.033,0.266
			c0.348,0.177,0.564,0.363,0.652,0.559s0.131,0.513,0.131,0.95c0,0.344-0.115,0.517-0.346,0.517c-0.139,0-0.316-0.089-0.533-0.266
			s-0.367-0.4-0.451-0.67c-0.082-0.271-0.217-0.405-0.4-0.405l-0.346-0.111l-0.195,0.056h-0.055c-0.037,0-0.119-0.028-0.25-0.084
			h-0.041l-0.416,0.111H56.98l-0.264,0.14c-0.129,0.037-0.27,0.065-0.422,0.084s-0.289,0.056-0.41,0.112
			c-0.119,0.056-0.18,0.106-0.18,0.153c0,0.288-0.125,0.535-0.373,0.74c-0.094,0.148-0.145,0.268-0.152,0.356
			c-0.01,0.088-0.063,0.186-0.16,0.293c-0.096,0.107-0.201,0.272-0.311,0.496l-0.111,0.195c-0.037,0.056-0.055,0.103-0.055,0.14
			c0,0.019,0.008,0.056,0.027,0.111v0.126c0,0.261-0.152,0.508-0.457,0.74v0.14c0,0.074-0.074,0.182-0.223,0.321l0.057,0.279
			c0,0.037-0.051,0.114-0.152,0.23s-0.188,0.247-0.257,0.392c-0.069,0.144-0.2,0.272-0.395,0.384v0.084l0.083,0.167
			c0.027,0,0.042,0.019,0.042,0.057c0,0.064-0.069,0.162-0.208,0.293c-0.037,0.148-0.102,0.293-0.193,0.433L52.3,27.393
			c-0.093,0.13-0.139,0.232-0.139,0.308l-0.097,0.265c-0.102,0.084-0.174,0.17-0.215,0.259c-0.042,0.089-0.164,0.263-0.367,0.523
			s-0.337,0.392-0.401,0.392c0.056,0.111,0.083,0.177,0.083,0.195c0,0.112-0.074,0.247-0.222,0.405c-0.24,0-0.359,0.051-0.359,0.153
			l0.068,0.279c0,0.037-0.051,0.093-0.152,0.168c-0.102,0.074-0.185,0.111-0.249,0.111h-0.193l0.056,0.252
			c-0.037,0.103-0.093,0.172-0.167,0.209c-0.073,0.037-0.195,0.146-0.366,0.328s-0.293,0.291-0.367,0.329l-0.18,0.111l-0.541,0.056
			c-0.148-0.047-0.431-0.2-0.851-0.461s-0.659-0.505-0.719-0.733c-0.06-0.228-0.09-0.552-0.09-0.971
			c0-0.047,0.046-0.125,0.138-0.237l0.028-0.111v-0.266c0-0.019,0.046-0.184,0.138-0.496c0.092-0.312,0.17-0.484,0.235-0.517
			c0.064-0.033,0.166-0.217,0.304-0.552s0.244-0.554,0.318-0.656l1.274-1.886c0-0.121,0.019-0.2,0.056-0.237h0.083
			c0.074,0,0.125-0.026,0.152-0.077s0.069-0.109,0.125-0.175c0-0.177,0.08-0.321,0.242-0.433c0.161-0.111,0.276-0.235,0.346-0.37
			s0.15-0.259,0.243-0.37l0.027-0.084c0.037-0.037,0.117-0.081,0.242-0.133c0.125-0.051,0.196-0.123,0.215-0.216l0.471-0.461
			c0.046-0.038,0.12-0.084,0.222-0.14c0.102-0.057,0.208-0.159,0.318-0.308l0.098-0.042h0.083l0.055-0.028
			c0.111-0.242,0.225-0.372,0.34-0.391s0.191-0.047,0.229-0.084c-0.01-0.288,0.152-0.433,0.484-0.433
			c0.073,0,0.129-0.019,0.166-0.056l0.333-0.266c0.046-0.037,0.133-0.219,0.263-0.545v-0.028l0.249,0.07l0.027-0.07l-0.055-0.307
			c0.027-0.037,0.082-0.165,0.166-0.385c0.082-0.218,0.162-0.347,0.234-0.384c0.074-0.037,0.111-0.079,0.111-0.126v-0.167
			l-0.027-0.168l0.055-0.111v-0.182l0.027-0.056c0.047-0.047,0.102-0.219,0.166-0.518c0.037-0.037,0.088-0.074,0.152-0.111
			l0.623-1.773c0.018-0.047,0.047-0.168,0.082-0.363l0.111-0.154c0.111-0.298,0.166-0.488,0.166-0.572
			c0-0.037-0.018-0.056-0.055-0.056s-0.121,0.054-0.25,0.16c-0.129,0.107-0.225,0.161-0.289,0.161l-0.223-0.056h-0.055
			c-0.055,0-0.131,0.046-0.229,0.14c-0.098,0.093-0.154,0.14-0.172,0.14l-0.166,0.027c-0.094,0.158-0.176,0.247-0.25,0.266
			l-0.346,0.224h-0.027l-0.195-0.14c0-0.019-0.022-0.028-0.068-0.028c-0.037,0-0.093,0.112-0.166,0.335l-0.43,0.21
			c-0.093-0.019-0.148-0.028-0.167-0.028c-0.092,0-0.18,0.087-0.263,0.259c-0.084,0.172-0.194,0.268-0.333,0.286
			c-0.074,0.084-0.245,0.149-0.513,0.195l-0.817,0.573c-0.093,0.037-0.157,0.084-0.194,0.14c-0.194,0.019-0.374,0.126-0.54,0.321
			l-0.375-0.028c-0.092,0-0.183,0.061-0.27,0.182c-0.088,0.121-0.179,0.182-0.271,0.182h-0.083l-0.166-0.028l-0.458,0.112
			c-0.129,0-0.328-0.101-0.596-0.301c-0.268-0.2-0.402-0.374-0.402-0.523l-0.083-0.629c0-0.019,0.037-0.083,0.11-0.195
			c0.074-0.111,0.111-0.19,0.111-0.237c0-0.019-0.009-0.056-0.028-0.111v-0.112c0-0.326,0.115-0.717,0.346-1.173v-0.056
			c0-0.037-0.028-0.057-0.083-0.057c-0.12,0-0.221,0.101-0.304,0.301s-0.179,0.342-0.288,0.426s-0.189,0.153-0.24,0.21
			c-0.05,0.056-0.094,0.083-0.13,0.083c-0.055-0.037-0.119-0.064-0.192-0.083c-0.018-0.019-0.05-0.075-0.096-0.168
			c-0.045-0.093-0.116-0.17-0.212-0.23c-0.096-0.061-0.144-0.165-0.144-0.314c0-0.103,0.133-0.237,0.399-0.405l0.166-0.167
			c0.422-0.429,0.708-0.656,0.854-0.685l0.083-0.195c0.128-0.103,0.287-0.245,0.476-0.427c0.188-0.181,0.355-0.309,0.503-0.384
			l0.745-0.656c0.222-0.204,0.525-0.307,0.913-0.307c0.295,0,0.442,0.19,0.442,0.572s-0.066,0.677-0.2,0.887
			c-0.134,0.209-0.217,0.4-0.249,0.572c-0.032,0.173-0.154,0.4-0.367,0.685c-0.212,0.284-0.341,0.494-0.387,0.629
			c-0.047,0.135-0.141,0.321-0.284,0.559c-0.143,0.237-0.214,0.449-0.214,0.636c0,0.093,0.056,0.14,0.166,0.14
			c0.157,0,0.355-0.084,0.596-0.252l0.124-0.056c0.093-0.037,0.185-0.084,0.277-0.14l0.346-0.153
			c0.064-0.14,0.166-0.233,0.305-0.279l0.263-0.14c0.13-0.057,0.288-0.128,0.478-0.217s0.312-0.175,0.367-0.259
			s0.127-0.151,0.214-0.202c0.088-0.051,0.188-0.133,0.298-0.244c0.24,0,0.572-0.21,0.997-0.629c0.425-0.251,0.821-0.5,1.19-0.747
			s0.613-0.426,0.734-0.538c0.055-0.037,0.154-0.088,0.297-0.153s0.305-0.17,0.484-0.314c0.18-0.144,0.408-0.216,0.686-0.216
			c0.238,0,0.469,0.091,0.691,0.271c0.221,0.182,0.332,0.361,0.332,0.538l-0.027,0.67c0,0.429-0.117,0.792-0.346,1.09
			c-0.057,0.372-0.121,0.629-0.195,0.769l0.029,0.321C57.736,15.604,57.635,15.697,57.432,15.828z M50.879,26.526l0.069-0.195
			c0.019-0.065,0.083-0.131,0.193-0.195c0.092-0.4,0.217-0.661,0.373-0.782c0-0.205,0.01-0.321,0.028-0.35l0.193-0.182l0.539-0.922
			c0.056-0.13,0.115-0.253,0.18-0.37c0.064-0.116,0.115-0.23,0.152-0.342c0-0.131,0.152-0.387,0.456-0.769v-0.098
			c0-0.13-0.027-0.195-0.083-0.195c-0.055,0.065-0.147,0.13-0.276,0.195l-0.885,0.755c-0.047,0.037-0.171,0.186-0.373,0.446
			l-0.263,0.279c-0.148,0.158-0.261,0.259-0.339,0.301c-0.079,0.042-0.176,0.177-0.291,0.405c-0.115,0.228-0.214,0.342-0.297,0.342
			h-0.056c-0.009,0-0.055-0.023-0.138-0.07c-0.056,0.028-0.083,0.07-0.083,0.126l0.083,0.335c0,0.037-0.037,0.096-0.111,0.175
			c-0.073,0.079-0.136,0.165-0.187,0.259c-0.051,0.093-0.104,0.148-0.159,0.167c-0.055,0.019-0.156,0.191-0.304,0.518l-0.263,0.14
			c-0.027,0.549-0.198,0.991-0.512,1.326c-0.074,0.149-0.134,0.296-0.18,0.44c-0.046,0.145-0.087,0.235-0.125,0.272
			c-0.055,0.345-0.152,0.545-0.291,0.601c-0.037,0.019-0.055,0.046-0.055,0.084c0,0.056,0.042,0.111,0.125,0.167l0.055,0.057
			c-0.12,0.362-0.18,0.633-0.18,0.81c0,0.037,0.019,0.056,0.055,0.056l0.415-0.209c0.295-0.14,0.494-0.317,0.595-0.531l0.222-0.433
			c0.036-0.056,0.101-0.094,0.193-0.112c0.055-0.195,0.145-0.321,0.27-0.377c0.124-0.056,0.187-0.13,0.187-0.224
			c0-0.093,0.173-0.414,0.519-0.963C50.679,26.913,50.86,26.602,50.879,26.526z"/>
		<path fill="#FEF5E4" d="M61.093,13.551l0.194,0.084c0.019-0.158,0.107-0.293,0.265-0.405h0.111c0.092,0,0.213-0.125,0.36-0.377
			l0.236-0.14c0.037,0.019,0.093,0.028,0.167,0.028c0.056,0,0.108-0.037,0.16-0.112c0.051-0.074,0.178-0.219,0.382-0.433h0.056
			c0.056,0,0.123-0.042,0.201-0.126c0.079-0.083,0.184-0.125,0.313-0.125l0.473-0.126c0.147-0.037,0.23-0.056,0.249-0.056
			c0.083-0.028,0.286,0.142,0.609,0.51c0.322,0.367,0.483,0.724,0.483,1.068c0,0.195-0.102,0.312-0.304,0.349l-0.069,0.057v0.279
			l-0.235,0.517c-0.064,0.14-0.143,0.229-0.235,0.266c-0.083,0.148-0.143,0.251-0.18,0.307l-0.193,0.028l-0.083,0.084v0.349
			c-0.083,0.112-0.203,0.356-0.359,0.733c-0.157,0.377-0.235,0.617-0.235,0.72c0,0.177,0.036,0.265,0.11,0.265
			c0.056,0,0.11-0.022,0.166-0.069s0.132-0.101,0.229-0.161s0.168-0.123,0.214-0.188c0.046-0.064,0.143-0.123,0.29-0.174
			c0.147-0.052,0.286-0.147,0.415-0.287s0.222-0.232,0.276-0.279c0.056-0.046,0.115-0.109,0.18-0.188s0.106-0.118,0.125-0.118
			c0.055,0,0.143-0.019,0.263-0.057c0.018-0.102,0.036-0.177,0.055-0.223l0.332-0.168l0.802-0.727l0.11-0.14
			c0.147-0.037,0.24-0.064,0.276-0.084c0.074-0.251,0.198-0.433,0.373-0.544c0-0.037,0.047-0.065,0.139-0.084
			c0.073-0.149,0.168-0.268,0.283-0.356c0.115-0.088,0.21-0.197,0.283-0.328l0.318-0.266c0.092-0.037,0.157-0.093,0.193-0.167
			c0.479-0.429,0.776-0.673,0.892-0.733s0.302-0.091,0.561-0.091c0.258,0,0.467,0.101,0.628,0.3c0.162,0.2,0.337,0.352,0.526,0.454
			c0.188,0.103,0.283,0.298,0.283,0.587c0,0.27-0.207,0.787-0.622,1.55c-0.268,0.801-0.406,1.292-0.415,1.474
			c-0.01,0.182-0.051,0.286-0.125,0.314c-0.073,0.028-0.11,0.061-0.11,0.098v0.056c0,0.224,0.037,0.336,0.11,0.336
			c0.056,0,0.132-0.047,0.229-0.14c0.097-0.094,0.292-0.196,0.587-0.308l0.124,0.028c0.267-0.41,0.445-0.631,0.538-0.664
			c0.092-0.032,0.184-0.116,0.275-0.251s0.204-0.207,0.338-0.217c0.133-0.009,0.218-0.032,0.255-0.069
			c0.009-0.224,0.19-0.476,0.544-0.755c0.354-0.279,0.559-0.419,0.614-0.419c0.092,0,0.165,0.07,0.22,0.21
			c0.056,0.14,0.113,0.235,0.173,0.286s0.09,0.096,0.09,0.133v0.251c0,0.121-0.061,0.2-0.18,0.237
			c-0.092,0.205-0.175,0.326-0.249,0.363l-0.248-0.027c-0.046,0.056-0.085,0.106-0.117,0.153s-0.054,0.065-0.063,0.056
			c-0.073,0.019-0.204,0.143-0.394,0.37c-0.188,0.229-0.356,0.417-0.504,0.565l-0.055,0.084c-0.074,0.056-0.143,0.094-0.207,0.112
			l-0.249,0.209c-0.092-0.056-0.146-0.084-0.165-0.084s-0.058,0.038-0.117,0.112c-0.061,0.074-0.18,0.17-0.359,0.286
			s-0.315,0.249-0.407,0.398l-0.221,0.223l-0.29,0.042c-0.027,0-0.073,0.042-0.138,0.126l-0.249,0.321
			c-0.119,0.158-0.308,0.237-0.565,0.237c-0.056,0-0.127-0.049-0.214-0.146c-0.088-0.098-0.17-0.182-0.249-0.251
			c-0.078-0.07-0.253-0.28-0.524-0.629c-0.272-0.35-0.408-0.533-0.408-0.552l0.083-0.489l-0.027-0.335
			c0-0.064,0.044-0.165,0.131-0.3c0.088-0.135,0.132-0.207,0.132-0.217l-0.027-0.545c0.018-0.019,0.036-0.046,0.055-0.084
			l0.194-0.321c-0.019-0.093-0.028-0.195-0.028-0.307L69,14.264c-0.166,0.074-0.312,0.226-0.437,0.454
			c-0.124,0.228-0.288,0.342-0.49,0.342c-0.176,0.316-0.31,0.471-0.401,0.461c-0.037,0.037-0.065,0.074-0.083,0.111l-0.194,0.112
			l-0.234-0.028l-0.084,0.35c-0.203,0.111-0.334,0.212-0.394,0.3c-0.061,0.089-0.155,0.18-0.284,0.272l-0.235,0.224h-0.221
			c-0.037,0.251-0.181,0.461-0.43,0.629l-0.11,0.14l-0.249-0.028c-0.093,0.298-0.208,0.479-0.346,0.545
			c-0.157,0-0.372,0.145-0.644,0.433c-0.272,0.289-0.464,0.434-0.574,0.434c-0.803,0-1.453-0.508-1.951-1.522
			c-0.019-0.037-0.063-0.107-0.132-0.21c-0.068-0.103-0.104-0.261-0.104-0.475c0-0.363,0.049-0.61,0.146-0.74
			c0.097-0.131,0.222-0.375,0.373-0.733c0.152-0.358,0.266-0.515,0.339-0.468c0.019-0.037,0.028-0.093,0.028-0.168
			c0.147-0.177,0.221-0.312,0.221-0.405c0-0.037-0.019-0.056-0.055-0.056c-0.019,0-0.074,0.028-0.166,0.084l-0.194,0.084
			c-0.084,0.019-0.145,0.056-0.181,0.111c-0.037,0.056-0.103,0.109-0.195,0.161c-0.093,0.051-0.167,0.096-0.222,0.133h-0.042
			c-0.056-0.057-0.093-0.084-0.111-0.084c-0.056,0.148-0.103,0.242-0.139,0.279l-0.167,0.027c-0.204,0.215-0.334,0.321-0.39,0.321
			c-0.037,0-0.12-0.032-0.25-0.098c-0.13-0.064-0.194-0.13-0.194-0.195l0.097-0.545v-0.251c0-0.019,0.037-0.056,0.111-0.112
			c0.019,0,0.093-0.1,0.223-0.3S60.917,13.551,61.093,13.551z"/>
		<path fill="#FEF5E4" d="M73.387,15.115V15.06l0.083-0.084c0-0.056,0.053-0.146,0.158-0.272c0.106-0.125,0.173-0.226,0.201-0.3
			c0.027-0.074,0.073-0.131,0.138-0.168s0.122-0.104,0.173-0.202c0.05-0.098,0.158-0.193,0.324-0.286l1.409-1.802
			c0.156-0.195,0.271-0.331,0.345-0.405c0.304-0.382,0.548-0.838,0.732-1.369c0.036-0.056,0.092-0.112,0.166-0.167
			c0.23-0.456,0.443-0.973,0.638-1.55l0.139-0.224c0.009-0.028,0.088-0.179,0.235-0.454c0.147-0.274,0.256-0.449,0.326-0.523
			c0.069-0.075,0.136-0.247,0.201-0.517l0.304-0.614c0.083-0.187,0.208-0.484,0.374-0.894c0.23-0.084,0.346-0.135,0.346-0.154
			c0-0.037-0.014-0.079-0.041-0.125c-0.028-0.046-0.051-0.088-0.069-0.126c0.036-0.13,0.11-0.237,0.221-0.321l0.056-0.056
			c0-0.037,0.037-0.112,0.11-0.224l0.028-0.083c0.166-0.373,0.38-0.685,0.643-0.936s0.515-0.377,0.754-0.377
			c0.222,0,0.346,0.084,0.374,0.251c0.027,0.167,0.071,0.305,0.131,0.412c0.061,0.107,0.09,0.216,0.09,0.328v0.349l-0.083,1.201
			c0,0.019,0.01,0.056,0.028,0.112c-0.083,0.075-0.134,0.172-0.152,0.293L81.2,7.308c-0.046,0.009-0.143,0.154-0.29,0.433
			l-0.208,0.405c-0.221,0.429-0.392,0.675-0.512,0.741l-0.083,0.111c-0.102,0.149-0.188,0.224-0.263,0.224
			c0,0.233-0.081,0.426-0.242,0.58s-0.283,0.326-0.366,0.517s-0.24,0.342-0.471,0.454c-0.074,0.149-0.166,0.313-0.276,0.489
			l-0.623,0.852c-0.166,0.233-0.292,0.515-0.38,0.845c-0.088,0.331-0.178,0.566-0.27,0.706l-0.056,0.14
			c-0.212,0.13-0.318,0.209-0.318,0.237c0,0.047-0.019,0.195-0.055,0.447c-0.074,0.195-0.12,0.303-0.139,0.321l0.027,0.307
			l-0.18,0.028c-0.019,0.019-0.046,0.098-0.083,0.237v0.279l0.027,0.028c0.037,0,0.079-0.065,0.125-0.196
			c0.129-0.093,0.295-0.19,0.498-0.293l0.097-0.056c0.073-0.224,0.147-0.363,0.222-0.419l0.276-0.377l0.401-0.35
			c0.378-0.372,0.566-0.572,0.566-0.601c0-0.019,0.01-0.037,0.028-0.056l0.193,0.027l0.097-0.056l-0.041-0.251
			c0.009-0.01,0.078-0.065,0.207-0.168l0.43-0.433l0.221-0.168c0.074-0.065,0.168-0.149,0.284-0.251
			c0.115-0.103,0.21-0.153,0.283-0.153l0.166,0.056c0.111-0.279,0.355-0.503,0.733-0.671c0.379-0.167,0.6-0.251,0.664-0.251
			l0.789,0.182c0.073,0.074,0.232,0.184,0.478,0.328c0.244,0.145,0.366,0.5,0.366,1.068c0,0.056-0.056,0.2-0.166,0.433l0.027,0.252
			c0,0.056-0.073,0.153-0.221,0.293l-0.083,0.279l-0.803,0.74c-0.093,0.065-0.187,0.111-0.283,0.14
			c-0.098,0.028-0.196,0.084-0.298,0.168c-0.102,0.083-0.327,0.212-0.678,0.384s-0.526,0.314-0.526,0.426
			c0,0.037,0.063,0.143,0.187,0.314c0.125,0.173,0.215,0.319,0.271,0.44c0.055,0.121,0.159,0.261,0.312,0.419
			c0.151,0.158,0.283,0.246,0.394,0.265c0.111,0.02,0.227,0.047,0.347,0.084c0.009-0.019,0.092-0.058,0.249-0.118
			c0.156-0.061,0.271-0.128,0.346-0.203l0.193-0.056c0.129-0.019,0.22-0.074,0.271-0.168c0.05-0.093,0.182-0.202,0.394-0.328
			c0.213-0.125,0.381-0.27,0.505-0.433c0.125-0.163,0.238-0.244,0.34-0.244h0.166c0.129,0,0.202-0.094,0.221-0.279
			c0.249-0.112,0.43-0.23,0.54-0.356s0.235-0.226,0.374-0.301l0.082-0.056c0.249-0.27,0.457-0.405,0.623-0.405
			c0.092,0,0.157,0.047,0.193,0.14c-0.073,0.308-0.11,0.521-0.11,0.643c0,0.084-0.053,0.252-0.159,0.503
			c-0.105,0.252-0.164,0.377-0.173,0.377l-0.152-0.056h-0.027c-0.056,0-0.11,0.033-0.166,0.098c-0.056,0.065-0.11,0.107-0.166,0.126
			s-0.113,0.074-0.173,0.168c-0.061,0.093-0.154,0.165-0.283,0.216c-0.13,0.052-0.233,0.124-0.312,0.217s-0.137,0.153-0.173,0.182
			c-0.037,0.027-0.074,0.063-0.11,0.104c-0.037,0.042-0.079,0.077-0.125,0.104c-0.046,0.028-0.104,0.084-0.173,0.168
			s-0.159,0.153-0.27,0.21c-0.111,0.056-0.196,0.142-0.256,0.258c-0.061,0.117-0.139,0.198-0.235,0.244
			c-0.097,0.047-0.233,0.126-0.408,0.238l-0.373,0.265c-0.093,0.057-0.148,0.084-0.166,0.084h-0.042l-0.139-0.027
			c-0.036,0-0.055,0.027-0.055,0.083c-0.111,0.159-0.213,0.238-0.305,0.238c-0.102,0-0.229,0.032-0.38,0.098
			c-0.152,0.064-0.266,0.098-0.339,0.098c-0.13,0-0.374-0.047-0.733-0.14c-0.074-0.084-0.157-0.145-0.249-0.182
			c-0.093-0.037-0.208-0.21-0.346-0.517l-0.194-0.168c-0.156-0.111-0.41-0.587-0.761-1.425l-0.124-0.167
			c-0.296-0.065-0.442-0.21-0.442-0.434c0-0.046,0.055-0.182,0.165-0.405l0.139-0.083c0.056-0.112,0.122-0.177,0.201-0.196
			c0.078-0.019,0.145-0.086,0.2-0.202s0.139-0.175,0.249-0.175h0.056c0.129-0.13,0.256-0.23,0.38-0.3
			c0.125-0.07,0.226-0.143,0.305-0.217c0.078-0.074,0.281-0.168,0.608-0.279c0.327-0.112,0.491-0.466,0.491-1.062
			c0-0.056-0.046-0.093-0.139-0.112c-0.268,0.094-0.466,0.215-0.595,0.363c-0.185,0.02-0.327,0.114-0.429,0.287
			c-0.102,0.172-0.193,0.258-0.276,0.258l-0.263-0.027c-0.056,0-0.111,0.076-0.166,0.23c-0.056,0.153-0.13,0.23-0.222,0.23h-0.11
			l-0.181,0.083l-0.055,0.224c-0.213,0.233-0.383,0.35-0.512,0.35l-0.111,0.321c-0.147,0.056-0.317,0.195-0.512,0.419L77.522,15.8
			c-0.073,0.084-0.129,0.153-0.166,0.21c-0.037,0.056-0.092,0.083-0.166,0.083c-0.12,0.075-0.226,0.229-0.317,0.461
			c-0.111,0-0.186,0.087-0.222,0.259c-0.037,0.172-0.115,0.259-0.235,0.259h-0.11c-0.093,0.214-0.171,0.347-0.235,0.397
			c-0.064,0.052-0.139,0.128-0.222,0.23s-0.147,0.205-0.193,0.308s-0.139,0.209-0.276,0.321c-0.139,0.111-0.245,0.205-0.318,0.279
			l-0.222,0.14c-0.12,0.084-0.198,0.145-0.235,0.182c-0.036,0.037-0.083,0.056-0.138,0.056c-0.093,0-0.224-0.072-0.395-0.217
			c-0.171-0.144-0.256-0.253-0.256-0.328c0-0.54,0.046-0.922,0.139-1.146l0.373-0.978c0.11-0.298,0.242-0.559,0.395-0.782
			s0.229-0.382,0.229-0.475c0-0.13-0.047-0.195-0.139-0.195c-0.323,0.326-0.535,0.517-0.637,0.572
			C73.649,15.372,73.387,15.265,73.387,15.115z"/>
		<path fill="#FEF5E4" d="M86.517,14.124l0.111-0.154c0.24-0.056,0.394-0.148,0.458-0.279c0.027-0.064,0.26-0.307,0.694-0.726
			c0.436-0.419,0.677-0.643,0.723-0.671c0.294-0.54,0.474-0.944,0.538-1.215c0.11-0.056,0.165-0.121,0.165-0.196l0.11-0.224
			l0.124-0.028l0.056-0.056V10.45c0-0.167,0.179-0.559,0.537-1.173c0.359-0.754,0.553-1.17,0.58-1.25
			c0.028-0.079,0.083-0.195,0.166-0.349c0.083-0.153,0.21-0.449,0.381-0.887c0.17-0.438,0.436-0.894,0.795-1.369
			c0.037-0.019,0.093-0.123,0.166-0.314c0.074-0.191,0.189-0.379,0.346-0.566l0.166-0.293c0.056-0.093,0.152-0.256,0.291-0.489
			c0.139-0.232,0.265-0.417,0.38-0.551c0.115-0.135,0.203-0.277,0.264-0.426c0.06-0.149,0.131-0.256,0.214-0.321
			c0.083-0.065,0.168-0.184,0.256-0.356s0.224-0.258,0.408-0.258c0.359,0,0.62,0.149,0.781,0.447
			c0.162,0.298,0.242,0.559,0.242,0.782c0,0.028-0.055,0.228-0.166,0.601l-0.207,1.257c-0.185,0.093-0.276,0.201-0.276,0.321
			c0,0.494-0.189,1.006-0.567,1.537c-0.037,0.037-0.067,0.158-0.09,0.363c-0.023,0.205-0.104,0.373-0.242,0.503
			c-0.139,0.131-0.263,0.349-0.374,0.657l-1.286,1.857l-0.11,0.112c-0.056,0.037-0.12,0.117-0.194,0.237l-0.221-0.07
			c-0.249,0-0.374,0.08-0.374,0.238c0,0.056,0.019,0.13,0.056,0.223v0.028c0,0.01-0.342,0.499-1.023,1.466
			c-0.037,0.057-0.102,0.238-0.194,0.545l-0.193,0.419c-0.193,0.271-0.33,0.533-0.408,0.789c-0.078,0.257-0.182,0.464-0.312,0.622
			c-0.185,0.419-0.276,0.638-0.276,0.656c0,0.056,0.027,0.084,0.083,0.084s0.187-0.14,0.395-0.419
			c0.207-0.279,0.378-0.466,0.512-0.559s0.247-0.224,0.339-0.392l0.139-0.098c0.037-0.019,0.115-0.074,0.235-0.167l0.139,0.027
			c0.074-0.056,0.12-0.121,0.139-0.195s0.046-0.13,0.083-0.168c0.24-0.027,0.391-0.116,0.45-0.265
			c0.061-0.149,0.132-0.224,0.215-0.224c0.074,0,0.171-0.086,0.291-0.259c0.12-0.172,0.289-0.312,0.506-0.419
			s0.379-0.203,0.485-0.286c0.106-0.084,0.321-0.184,0.645-0.3c0.323-0.117,0.54-0.175,0.651-0.175h0.082l0.111,0.027l0.208-0.027
			c0.323,0,0.646,0.091,0.969,0.272c0.323,0.182,0.462,0.463,0.416,0.845l-0.111,0.866l-0.152,0.684
			c-0.019,0.112-0.092,0.358-0.221,0.74c-0.13,0.382-0.194,0.601-0.194,0.657l-0.055,0.265l0.055,0.363l-0.027,0.294
			c0,0.093,0.046,0.14,0.138,0.14c0.037,0,0.138-0.084,0.304-0.252c0.101,0.019,0.197-0.037,0.289-0.168
			c0.092-0.13,0.216-0.265,0.373-0.404c0-0.037,0.06-0.072,0.179-0.105c0.119-0.032,0.285-0.142,0.496-0.328
			c0.037-0.083,0.216-0.263,0.538-0.537c0.321-0.274,0.63-0.486,0.924-0.636l0.083-0.111c0.155-0.159,0.298-0.238,0.427-0.238
			s0.193,0.07,0.193,0.21c0,0.093-0.023,0.19-0.069,0.293s-0.078,0.235-0.097,0.398s-0.11,0.397-0.276,0.705l-0.055,0.14
			c-0.064,0.158-0.143,0.252-0.235,0.279c-0.092,0.028-0.19,0.104-0.297,0.23c-0.105,0.126-0.324,0.245-0.656,0.356
			c-0.147,0.279-0.263,0.419-0.346,0.419l-0.248-0.111c-0.193,0.158-0.29,0.321-0.29,0.488c-0.239,0.205-0.383,0.34-0.429,0.405
			l-0.276-0.028c-0.073,0-0.11,0.103-0.11,0.308c0,0.019-0.094,0.082-0.283,0.188c-0.188,0.107-0.334,0.202-0.435,0.286
			c-0.102,0.084-0.318,0.126-0.649,0.126c-0.037,0-0.093-0.032-0.166-0.098s-0.182-0.121-0.324-0.168
			c-0.143-0.046-0.242-0.155-0.297-0.328c-0.056-0.172-0.115-0.308-0.18-0.405s-0.097-0.174-0.097-0.23l0.027-0.279l-0.069-0.293
			l0.125-0.195c-0.056-0.131-0.083-0.219-0.083-0.266l0.138-0.852c0.102-0.615,0.185-1.016,0.249-1.201
			c0.019-0.019,0.028-0.075,0.028-0.168l-0.028-0.35l0.028-0.195c0-0.14-0.047-0.214-0.139-0.224
			c-0.093-0.009-0.147-0.032-0.166-0.069c-0.12-0.056-0.189-0.084-0.208-0.084c-0.074,0-0.139,0.059-0.194,0.175
			c-0.055,0.116-0.129,0.221-0.221,0.314l-0.347-0.057v0.028c0,0.074-0.125,0.219-0.374,0.433c-0.23,0.057-0.429,0.178-0.595,0.363
			c-0.074,0-0.201,0.072-0.381,0.217c-0.181,0.145-0.298,0.226-0.354,0.244l-0.11,0.224l-0.222,0.069
			c-0.064,0.187-0.218,0.308-0.457,0.363l-0.139,0.266c-0.194,0.019-0.328,0.119-0.401,0.301c-0.074,0.182-0.13,0.272-0.166,0.272
			c-0.019,0-0.049-0.012-0.091-0.035c-0.041-0.023-0.08-0.035-0.117-0.035c-0.203,0-0.314,0.153-0.332,0.461
			c0,0.037-0.189,0.256-0.568,0.656s-0.581,0.605-0.609,0.615c-0.027,0.009-0.081,0.104-0.159,0.286s-0.187,0.316-0.325,0.404
			c-0.139,0.089-0.242,0.161-0.312,0.217s-0.122,0.084-0.159,0.084c-0.194,0-0.351-0.14-0.471-0.419s-0.181-0.424-0.181-0.433
			l0.084-0.294l-0.028-0.251c0-0.01,0.058-0.198,0.173-0.566c0.115-0.367,0.247-0.656,0.395-0.865
			c0.148-0.21,0.264-0.552,0.347-1.027c-0.415,0.28-0.665,0.42-0.748,0.42c-0.185,0-0.276-0.121-0.276-0.363
			C86.086,14.878,86.229,14.478,86.517,14.124z"/>
	</g>
</g>
</svg>
